<svg width="115" height="24" viewBox="0 0 115 24" fill="none" xmlns="http://www.w3.org/2000/svg">
<path d="M5.706 5.256H8.01L9.468 9.486L10.944 5.256H13.23L11.034 11.07L12.654 15.138L16.272 5.22H18.972L13.86 18H11.718L9.468 12.636L7.236 18H5.094L0 5.22H2.664L6.3 15.138L7.884 11.07L5.706 5.256ZM29.6952 15.822V18H20.8212V5.22H29.5332V7.398H23.3052V10.476H28.6872V12.492H23.3052V15.822H29.6952ZM42.4678 14.706C42.4678 15.426 42.2818 16.032 41.9098 16.524C41.5378 17.004 41.0338 17.37 40.3978 17.622C39.7738 17.874 39.0898 18 38.3458 18H32.1718V5.22H39.0118C39.6118 5.22 40.1278 5.382 40.5598 5.706C41.0038 6.018 41.3398 6.426 41.5678 6.93C41.8078 7.422 41.9278 7.938 41.9278 8.478C41.9278 9.09 41.7718 9.672 41.4598 10.224C41.1478 10.776 40.6918 11.184 40.0918 11.448C40.8238 11.664 41.3998 12.054 41.8198 12.618C42.2518 13.182 42.4678 13.878 42.4678 14.706ZM39.9658 14.238C39.9658 13.914 39.8998 13.626 39.7678 13.374C39.6358 13.11 39.4558 12.906 39.2278 12.762C39.0118 12.606 38.7598 12.528 38.4718 12.528H34.6558V15.894H38.3458C38.6458 15.894 38.9158 15.822 39.1558 15.678C39.4078 15.522 39.6058 15.318 39.7498 15.066C39.8938 14.814 39.9658 14.538 39.9658 14.238ZM34.6558 7.344V10.566H37.9678C38.2438 10.566 38.4958 10.5 38.7238 10.368C38.9518 10.236 39.1318 10.05 39.2638 9.81C39.4078 9.57 39.4798 9.282 39.4798 8.946C39.4798 8.622 39.4138 8.34 39.2818 8.1C39.1618 7.86 38.9938 7.674 38.7778 7.542C38.5738 7.41 38.3398 7.344 38.0758 7.344H34.6558Z" fill="#4D5AE5"/>
<path d="M52.946 8.568C52.862 8.484 52.706 8.37 52.478 8.226C52.262 8.082 51.992 7.944 51.668 7.812C51.356 7.68 51.014 7.566 50.642 7.47C50.27 7.362 49.892 7.308 49.508 7.308C48.836 7.308 48.326 7.434 47.978 7.686C47.642 7.938 47.474 8.292 47.474 8.748C47.474 9.096 47.582 9.372 47.798 9.576C48.014 9.78 48.338 9.954 48.77 10.098C49.202 10.242 49.742 10.398 50.39 10.566C51.23 10.77 51.956 11.022 52.568 11.322C53.192 11.61 53.666 11.994 53.99 12.474C54.326 12.942 54.494 13.566 54.494 14.346C54.494 15.03 54.368 15.618 54.116 16.11C53.864 16.59 53.516 16.98 53.072 17.28C52.628 17.58 52.124 17.802 51.56 17.946C50.996 18.078 50.396 18.144 49.76 18.144C49.124 18.144 48.488 18.078 47.852 17.946C47.216 17.814 46.604 17.628 46.016 17.388C45.428 17.136 44.888 16.836 44.396 16.488L45.494 14.346C45.602 14.454 45.794 14.598 46.07 14.778C46.346 14.946 46.682 15.12 47.078 15.3C47.474 15.468 47.906 15.612 48.374 15.732C48.842 15.852 49.316 15.912 49.796 15.912C50.468 15.912 50.978 15.798 51.326 15.57C51.674 15.342 51.848 15.018 51.848 14.598C51.848 14.214 51.71 13.914 51.434 13.698C51.158 13.482 50.774 13.296 50.282 13.14C49.79 12.972 49.208 12.792 48.536 12.6C47.732 12.372 47.06 12.12 46.52 11.844C45.98 11.556 45.578 11.196 45.314 10.764C45.05 10.332 44.918 9.792 44.918 9.144C44.918 8.268 45.122 7.536 45.53 6.948C45.95 6.348 46.514 5.898 47.222 5.598C47.93 5.286 48.716 5.13 49.58 5.13C50.18 5.13 50.744 5.196 51.272 5.328C51.812 5.46 52.316 5.634 52.784 5.85C53.252 6.066 53.672 6.3 54.044 6.552L52.946 8.568ZM66.4691 7.398H62.3831V18H59.9171V7.398H55.8311V5.22H66.4691V7.398ZM74.0136 18.09C72.9936 18.09 72.1236 17.922 71.4036 17.586C70.6956 17.238 70.1196 16.764 69.6756 16.164C69.2436 15.564 68.9256 14.886 68.7216 14.13C68.5176 13.362 68.4156 12.564 68.4156 11.736V5.22H70.8996V11.736C70.8996 12.264 70.9476 12.78 71.0436 13.284C71.1516 13.776 71.3256 14.22 71.5656 14.616C71.8056 15.012 72.1236 15.324 72.5196 15.552C72.9156 15.78 73.4076 15.894 73.9956 15.894C74.5956 15.894 75.0936 15.78 75.4896 15.552C75.8976 15.312 76.2156 14.994 76.4436 14.598C76.6836 14.202 76.8576 13.758 76.9656 13.266C77.0736 12.762 77.1276 12.252 77.1276 11.736V5.22H79.5936V11.736C79.5936 12.612 79.4856 13.434 79.2696 14.202C79.0656 14.97 78.7356 15.648 78.2796 16.236C77.8356 16.812 77.2596 17.268 76.5516 17.604C75.8436 17.928 74.9976 18.09 74.0136 18.09ZM82.6356 18V5.22H87.2796C88.6716 5.22 89.8356 5.508 90.7716 6.084C91.7076 6.648 92.4096 7.416 92.8776 8.388C93.3456 9.348 93.5796 10.416 93.5796 11.592C93.5796 12.888 93.3216 14.016 92.8056 14.976C92.2896 15.936 91.5576 16.68 90.6096 17.208C89.6736 17.736 88.5636 18 87.2796 18H82.6356ZM91.0776 11.592C91.0776 10.764 90.9276 10.038 90.6276 9.414C90.3276 8.778 89.8956 8.286 89.3316 7.938C88.7676 7.578 88.0836 7.398 87.2796 7.398H85.1196V15.822H87.2796C88.0956 15.822 88.7856 15.642 89.3496 15.282C89.9136 14.91 90.3396 14.406 90.6276 13.77C90.9276 13.122 91.0776 12.396 91.0776 11.592ZM96.0604 18V5.22H98.5444V18H96.0604ZM107.205 18.09C106.269 18.09 105.417 17.91 104.649 17.55C103.893 17.19 103.239 16.704 102.687 16.092C102.147 15.468 101.727 14.772 101.427 14.004C101.127 13.224 100.977 12.426 100.977 11.61C100.977 10.758 101.133 9.948 101.445 9.18C101.769 8.4 102.207 7.71 102.759 7.11C103.323 6.498 103.983 6.018 104.739 5.67C105.507 5.31 106.347 5.13 107.259 5.13C108.183 5.13 109.023 5.316 109.779 5.688C110.547 6.06 111.201 6.558 111.741 7.182C112.281 7.806 112.701 8.502 113.001 9.27C113.301 10.038 113.451 10.83 113.451 11.646C113.451 12.486 113.295 13.296 112.983 14.076C112.671 14.844 112.233 15.534 111.669 16.146C111.117 16.746 110.457 17.22 109.689 17.568C108.933 17.916 108.105 18.09 107.205 18.09ZM103.497 11.61C103.497 12.162 103.581 12.696 103.749 13.212C103.917 13.728 104.157 14.19 104.469 14.598C104.793 14.994 105.183 15.312 105.639 15.552C106.107 15.78 106.635 15.894 107.223 15.894C107.823 15.894 108.357 15.774 108.825 15.534C109.293 15.282 109.683 14.952 109.995 14.544C110.307 14.124 110.541 13.662 110.697 13.158C110.865 12.642 110.949 12.126 110.949 11.61C110.949 11.058 110.859 10.53 110.679 10.026C110.511 9.51 110.265 9.054 109.941 8.658C109.629 8.25 109.239 7.932 108.771 7.704C108.315 7.464 107.799 7.344 107.223 7.344C106.611 7.344 106.071 7.47 105.603 7.722C105.147 7.962 104.763 8.286 104.451 8.694C104.139 9.102 103.899 9.558 103.731 10.062C103.575 10.566 103.497 11.082 103.497 11.61Z" fill="#2E2F42"/>
</svg>
